<svg width="27" height="27" viewBox="0 0 27 27" fill="none" xmlns="http://www.w3.org/2000/svg">
<circle cx="13.307" cy="13.307" r="13.307" fill="#4461D7"/>
<path d="M15.7637 14.3329C15.7637 15.6853 14.6635 16.7856 13.311 16.7856C11.9586 16.7856 10.8588 15.6853 10.8588 14.3329C10.8588 12.9804 11.9586 11.8802 13.311 11.8802C14.6635 11.8802 15.7637 12.9808 15.7637 14.3329ZM20.915 10.8502V17.8164C20.915 18.7451 20.1621 19.4981 19.2334 19.4981H7.38868C6.45999 19.4981 5.70703 18.7451 5.70703 17.8164V10.8502C5.70703 9.92149 6.45999 9.16853 7.38868 9.16853H9.45711V8.58668C9.45711 7.77402 10.1155 7.11523 10.9286 7.11523H15.6935C16.5066 7.11523 17.1649 7.77402 17.1649 8.58668V9.16811H19.2334C20.1621 9.16853 20.915 9.92149 20.915 10.8502ZM17.025 14.3329C17.025 12.285 15.3589 10.619 13.311 10.619C11.2636 10.619 9.59753 12.285 9.59753 14.3329C9.59753 16.3807 11.2636 18.0468 13.311 18.0468C15.3589 18.0468 17.025 16.3807 17.025 14.3329Z" fill="#FAFAFA"/>
</svg>
